# Blender 4.0.2
# www.blender.org
mtllib windows.mtl
o Office_Building.001
v 16.287029 -17.164093 4.230418
v 16.777338 -17.164093 4.230418
v 16.777338 -17.164093 2.457767
v 16.287029 -17.164093 2.457767
v 16.777338 -17.176664 2.457767
v 16.777338 -17.176664 4.230418
v 16.287029 -17.176664 4.230418
v 16.287029 -17.176664 2.457767
v 15.721290 -17.164093 4.230418
v 16.211597 -17.164093 4.230418
v 16.211597 -17.164093 2.457767
v 15.721290 -17.164093 2.457767
v 16.211597 -17.176664 2.457767
v 16.211597 -17.176664 4.230418
v 15.721290 -17.176666 4.230418
v 15.721290 -17.176666 2.457767
v 16.287029 -17.163946 1.967406
v 16.777338 -17.163946 1.967406
v 16.777338 -17.163946 0.446237
v 16.287029 -17.163946 0.446237
v 16.777338 -17.176517 0.446237
v 16.777338 -17.176517 1.967406
v 16.287029 -17.176517 1.967406
v 16.287029 -17.176517 0.446237
v 15.721290 -17.163948 1.967406
v 16.211597 -17.163946 1.967406
v 16.211597 -17.163946 0.446237
v 15.721290 -17.163948 0.446237
v 16.211597 -17.176517 0.446237
v 16.211597 -17.176517 1.967406
v 15.721290 -17.176519 1.967406
v 15.721290 -17.176519 0.446237
v 3.086429 -17.163948 1.967406
v 3.576737 -17.163948 1.967406
v 3.576737 -17.163948 0.446237
v 3.086429 -17.163948 0.446237
v 3.576737 -17.176519 0.446237
v 3.576737 -17.176519 1.967406
v 3.086429 -17.176519 1.967406
v 3.086429 -17.176519 0.446237
v 2.520689 -17.163948 1.967406
v 3.010997 -17.163948 1.967406
v 3.010997 -17.163948 0.446237
v 2.520689 -17.163948 0.446237
v 3.010997 -17.176519 0.446237
v 3.010997 -17.176519 1.967406
v 2.520689 -17.176519 1.967406
v 2.520689 -17.176519 0.446237
v 3.086429 -17.164095 4.230418
v 3.576737 -17.164095 4.230418
v 3.576737 -17.164095 2.457767
v 3.086429 -17.164095 2.457767
v 3.576737 -17.176666 2.457767
v 3.576737 -17.176666 4.230418
v 3.086429 -17.176666 4.230418
v 3.086429 -17.176666 2.457767
v 2.520689 -17.164095 4.230418
v 3.010997 -17.164095 4.230418
v 3.010997 -17.164095 2.457767
v 2.520689 -17.164095 2.457767
v 3.010997 -17.176666 2.457767
v 3.010997 -17.176666 4.230418
v 2.520689 -17.176666 4.230418
v 2.520689 -17.176666 2.457767
v 12.515429 -17.164093 4.230418
v 13.005736 -17.164093 4.230418
v 13.005736 -17.164093 2.457766
v 12.515429 -17.164093 2.457766
v 13.005736 -17.176666 2.457766
v 13.005736 -17.176666 4.230418
v 12.515429 -17.176666 4.230418
v 12.515429 -17.176666 2.457766
v 11.949690 -17.164093 4.230418
v 12.439997 -17.164093 4.230418
v 12.439997 -17.164093 2.457766
v 11.949690 -17.164093 2.457766
v 12.439997 -17.176666 2.457766
v 12.439997 -17.176666 4.230418
v 11.949690 -17.176666 4.230418
v 11.949690 -17.176666 2.457766
v 12.515429 -17.163948 1.967406
v 13.005736 -17.163948 1.967406
v 13.005736 -17.163948 0.446237
v 12.515429 -17.163948 0.446237
v 13.005736 -17.176519 0.446237
v 13.005736 -17.176519 1.967406
v 12.515429 -17.176519 1.967406
v 12.515429 -17.176519 0.446237
v 11.949690 -17.163948 1.967406
v 12.439997 -17.163948 1.967406
v 12.439997 -17.163948 0.446237
v 11.949690 -17.163948 0.446237
v 12.439997 -17.176519 0.446237
v 12.439997 -17.176519 1.967406
v 11.949690 -17.176519 1.967406
v 11.949690 -17.176519 0.446237
v 14.401230 -17.164093 4.230418
v 14.891538 -17.164093 4.230418
v 14.891538 -17.164093 2.457766
v 14.401230 -17.164093 2.457766
v 14.891538 -17.176666 2.457766
v 14.891538 -17.176666 4.230418
v 14.401230 -17.176666 4.230418
v 14.401230 -17.176666 2.457766
v 13.835490 -17.164093 4.230418
v 14.325797 -17.164093 4.230418
v 14.325797 -17.164093 2.457766
v 13.835490 -17.164093 2.457766
v 14.325797 -17.176666 2.457766
v 14.325797 -17.176666 4.230418
v 13.835490 -17.176666 4.230418
v 13.835490 -17.176666 2.457766
v 14.401230 -17.163948 1.967406
v 14.891538 -17.163948 1.967406
v 14.891538 -17.163948 0.446237
v 14.401230 -17.163948 0.446237
v 14.891538 -17.176519 0.446237
v 14.891538 -17.176519 1.967406
v 14.401230 -17.176519 1.967406
v 14.401230 -17.176519 0.446237
v 13.835490 -17.163948 1.967406
v 14.325797 -17.163948 1.967406
v 14.325797 -17.163948 0.446237
v 13.835490 -17.163948 0.446237
v 14.325797 -17.176519 0.446237
v 14.325797 -17.176519 1.967406
v 13.835490 -17.176519 1.967406
v 13.835490 -17.176519 0.446237
v 10.629629 -17.164093 4.230418
v 11.119937 -17.164093 4.230418
v 11.119937 -17.164093 2.457766
v 10.629629 -17.164093 2.457766
v 11.119937 -17.176666 2.457766
v 11.119937 -17.176666 4.230418
v 10.629629 -17.176666 4.230418
v 10.629629 -17.176666 2.457766
v 10.063890 -17.164093 4.230418
v 10.554197 -17.164093 4.230418
v 10.554197 -17.164093 2.457766
v 10.063890 -17.164093 2.457766
v 10.554197 -17.176666 2.457766
v 10.554197 -17.176666 4.230418
v 10.063890 -17.176666 4.230418
v 10.063890 -17.176666 2.457766
v 10.629629 -17.163948 1.967406
v 11.119937 -17.163948 1.967406
v 11.119937 -17.163948 0.446237
v 10.629629 -17.163948 0.446237
v 11.119937 -17.176519 0.446237
v 11.119937 -17.176519 1.967406
v 10.629629 -17.176519 1.967406
v 10.629629 -17.176519 0.446237
v 10.063890 -17.163948 1.967406
v 10.554197 -17.163948 1.967406
v 10.554197 -17.163948 0.446237
v 10.063890 -17.163948 0.446237
v 10.554197 -17.176519 0.446237
v 10.554197 -17.176519 1.967406
v 10.063890 -17.176519 1.967406
v 10.063890 -17.176519 0.446237
v 8.743829 -17.164093 4.230418
v 9.234137 -17.164093 4.230418
v 9.234137 -17.164093 2.457766
v 8.743829 -17.164093 2.457766
v 9.234137 -17.176666 2.457766
v 9.234137 -17.176666 4.230418
v 8.743829 -17.176666 4.230418
v 8.743829 -17.176666 2.457766
v 8.178089 -17.164093 4.230418
v 8.668397 -17.164093 4.230418
v 8.668397 -17.164093 2.457766
v 8.178089 -17.164093 2.457766
v 8.668397 -17.176666 2.457766
v 8.668397 -17.176666 4.230418
v 8.178089 -17.176666 4.230418
v 8.178089 -17.176666 2.457766
v 8.743829 -17.163948 1.967406
v 9.234137 -17.163948 1.967406
v 9.234137 -17.163948 0.446237
v 8.743829 -17.163948 0.446237
v 9.234137 -17.176519 0.446237
v 9.234137 -17.176519 1.967406
v 8.743829 -17.176519 1.967406
v 8.743829 -17.176519 0.446237
v 8.178089 -17.163948 1.967406
v 8.668397 -17.163948 1.967406
v 8.668397 -17.163948 0.446237
v 8.178089 -17.163948 0.446237
v 8.668397 -17.176519 0.446237
v 8.668397 -17.176519 1.967406
v 8.178089 -17.176519 1.967406
v 8.178089 -17.176519 0.446237
v 6.858029 -17.164093 4.230418
v 7.348337 -17.164093 4.230418
v 7.348337 -17.164093 2.457766
v 6.858029 -17.164093 2.457766
v 7.348337 -17.176666 2.457766
v 7.348337 -17.176666 4.230418
v 6.858029 -17.176666 4.230418
v 6.858029 -17.176666 2.457766
v 6.292289 -17.164093 4.230418
v 6.782597 -17.164093 4.230418
v 6.782597 -17.164093 2.457766
v 6.292289 -17.164093 2.457766
v 6.782597 -17.176666 2.457766
v 6.782597 -17.176666 4.230418
v 6.292289 -17.176666 4.230418
v 6.292289 -17.176666 2.457766
v 6.858029 -17.163948 1.967406
v 7.348337 -17.163948 1.967406
v 7.348337 -17.163948 0.446237
v 6.858029 -17.163948 0.446237
v 7.348337 -17.176519 0.446237
v 7.348337 -17.176519 1.967406
v 6.858029 -17.176519 1.967406
v 6.858029 -17.176519 0.446237
v 6.292289 -17.163948 1.967406
v 6.782597 -17.163948 1.967406
v 6.782597 -17.163948 0.446237
v 6.292289 -17.163948 0.446237
v 6.782597 -17.176519 0.446237
v 6.782597 -17.176519 1.967406
v 6.292289 -17.176519 1.967406
v 6.292289 -17.176519 0.446237
v 16.287025 -0.248246 4.230419
v 16.287025 -0.248246 2.457767
v 16.777336 -0.248246 2.457767
v 16.777336 -0.248246 4.230419
v 16.777336 -0.235674 2.457767
v 16.287025 -0.235674 2.457767
v 16.287025 -0.235674 4.230419
v 16.777336 -0.235674 4.230419
v 15.721288 -0.248246 4.230419
v 15.721288 -0.248246 2.457767
v 16.211596 -0.248246 2.457767
v 16.211596 -0.248246 4.230419
v 16.211596 -0.235674 2.457767
v 15.721288 -0.235675 2.457767
v 15.721288 -0.235675 4.230419
v 16.211596 -0.235674 4.230419
v 16.287025 -0.248393 1.967406
v 16.287025 -0.248393 0.446238
v 16.777336 -0.248393 0.446238
v 16.777336 -0.248393 1.967406
v 16.777336 -0.235821 0.446238
v 16.287025 -0.235821 0.446238
v 16.287025 -0.235821 1.967406
v 16.777336 -0.235821 1.967406
v 15.721288 -0.248393 1.967406
v 15.721288 -0.248393 0.446238
v 16.211596 -0.248393 0.446238
v 16.211596 -0.248393 1.967406
v 16.211596 -0.235821 0.446238
v 15.721288 -0.235822 0.446238
v 15.721288 -0.235822 1.967406
v 16.211596 -0.235821 1.967406
v 4.972229 -17.164095 4.230418
v 5.462538 -17.164095 4.230418
v 5.462538 -17.164095 2.457767
v 4.972229 -17.164095 2.457767
v 5.462538 -17.176666 2.457767
v 5.462538 -17.176666 4.230418
v 4.972229 -17.176666 4.230418
v 4.972229 -17.176666 2.457767
v 4.406490 -17.164095 4.230418
v 4.896798 -17.164095 4.230418
v 4.896798 -17.164095 2.457767
v 4.406490 -17.164095 2.457767
v 4.896798 -17.176666 2.457767
v 4.896798 -17.176666 4.230418
v 4.406490 -17.176666 4.230418
v 4.406490 -17.176666 2.457767
v 4.972229 -17.163948 1.967406
v 5.462538 -17.163948 1.967406
v 5.462538 -17.163948 0.446237
v 4.972229 -17.163948 0.446237
v 5.462538 -17.176519 0.446237
v 5.462538 -17.176519 1.967406
v 4.972229 -17.176519 1.967406
v 4.972229 -17.176519 0.446237
v 4.406490 -17.163948 1.967406
v 4.896798 -17.163948 1.967406
v 4.896798 -17.163948 0.446237
v 4.406490 -17.163948 0.446237
v 4.896798 -17.176519 0.446237
v 4.896798 -17.176519 1.967406
v 4.406490 -17.176519 1.967406
v 4.406490 -17.176519 0.446237
v 14.401227 -0.248246 4.230418
v 14.401227 -0.248246 2.457766
v 14.891536 -0.248246 2.457766
v 14.891536 -0.248246 4.230418
v 14.891536 -0.235675 2.457766
v 14.401227 -0.235675 2.457766
v 14.401227 -0.235675 4.230418
v 14.891536 -0.235675 4.230418
v 13.835487 -0.248246 4.230418
v 13.835487 -0.248246 2.457766
v 14.325794 -0.248246 2.457766
v 14.325794 -0.248246 4.230418
v 14.325794 -0.235675 2.457766
v 13.835487 -0.235675 2.457766
v 13.835487 -0.235675 4.230418
v 14.325794 -0.235675 4.230418
v 14.401227 -0.248393 1.967406
v 14.401227 -0.248393 0.446237
v 14.891536 -0.248393 0.446237
v 14.891536 -0.248393 1.967406
v 14.891536 -0.235822 0.446237
v 14.401227 -0.235822 0.446237
v 14.401227 -0.235822 1.967406
v 14.891536 -0.235822 1.967406
v 13.835487 -0.248393 1.967406
v 13.835487 -0.248393 0.446237
v 14.325794 -0.248393 0.446237
v 14.325794 -0.248393 1.967406
v 14.325794 -0.235822 0.446237
v 13.835487 -0.235822 0.446237
v 13.835487 -0.235822 1.967406
v 14.325794 -0.235822 1.967406
v 3.086426 -0.248248 4.230418
v 3.086426 -0.248248 2.457767
v 3.576735 -0.248248 2.457767
v 3.576735 -0.248248 4.230418
v 3.576735 -0.235676 2.457767
v 3.086426 -0.235676 2.457767
v 3.086426 -0.235676 4.230418
v 3.576735 -0.235676 4.230418
v 2.520687 -0.248248 4.230418
v 2.520687 -0.248248 2.457767
v 3.010995 -0.248248 2.457767
v 3.010995 -0.248248 4.230418
v 3.010995 -0.235676 2.457767
v 2.520687 -0.235676 2.457767
v 2.520687 -0.235676 4.230418
v 3.010995 -0.235676 4.230418
v 3.086426 -0.248394 1.967406
v 3.086426 -0.248394 0.446238
v 3.576735 -0.248394 0.446238
v 3.576735 -0.248394 1.967406
v 3.576735 -0.235823 0.446238
v 3.086426 -0.235823 0.446238
v 3.086426 -0.235823 1.967406
v 3.576735 -0.235823 1.967406
v 2.520687 -0.248394 1.967406
v 2.520687 -0.248394 0.446238
v 3.010995 -0.248394 0.446238
v 3.010995 -0.248394 1.967406
v 3.010995 -0.235823 0.446238
v 2.520687 -0.235823 0.446238
v 2.520687 -0.235823 1.967406
v 3.010995 -0.235823 1.967406
v 12.515428 -0.248246 4.230418
v 12.515428 -0.248246 2.457766
v 13.005735 -0.248246 2.457766
v 13.005735 -0.248246 4.230418
v 13.005735 -0.235675 2.457766
v 12.515428 -0.235675 2.457766
v 12.515428 -0.235675 4.230418
v 13.005735 -0.235675 4.230418
v 11.949687 -0.248246 4.230418
v 11.949687 -0.248246 2.457766
v 12.439995 -0.248246 2.457766
v 12.439995 -0.248246 4.230418
v 12.439995 -0.235675 2.457766
v 11.949687 -0.235675 2.457766
v 11.949687 -0.235675 4.230418
v 12.439995 -0.235675 4.230418
v 12.515428 -0.248393 1.967406
v 12.515428 -0.248393 0.446237
v 13.005735 -0.248393 0.446237
v 13.005735 -0.248393 1.967406
v 13.005735 -0.235822 0.446237
v 12.515428 -0.235822 0.446237
v 12.515428 -0.235822 1.967406
v 13.005735 -0.235822 1.967406
v 11.949687 -0.248393 1.967406
v 11.949687 -0.248393 0.446237
v 12.439995 -0.248393 0.446237
v 12.439995 -0.248393 1.967406
v 12.439995 -0.235822 0.446237
v 11.949687 -0.235822 0.446237
v 11.949687 -0.235822 1.967406
v 12.439995 -0.235822 1.967406
v 10.629627 -0.248247 4.230418
v 10.629627 -0.248247 2.457767
v 11.119936 -0.248246 2.457767
v 11.119936 -0.248246 4.230418
v 11.119936 -0.235675 2.457767
v 10.629627 -0.235675 2.457767
v 10.629627 -0.235675 4.230418
v 11.119936 -0.235675 4.230418
v 10.063888 -0.248247 4.230418
v 10.063888 -0.248247 2.457767
v 10.554194 -0.248247 2.457767
v 10.554194 -0.248247 4.230418
v 10.554194 -0.235675 2.457767
v 10.063888 -0.235675 2.457767
v 10.063888 -0.235675 4.230418
v 10.554194 -0.235675 4.230418
v 10.629627 -0.248394 1.967406
v 10.629627 -0.248394 0.446237
v 11.119936 -0.248393 0.446237
v 11.119936 -0.248393 1.967406
v 11.119936 -0.235822 0.446237
v 10.629627 -0.235822 0.446237
v 10.629627 -0.235822 1.967406
v 11.119936 -0.235822 1.967406
v 10.063888 -0.248394 1.967406
v 10.063888 -0.248394 0.446237
v 10.554194 -0.248394 0.446237
v 10.554194 -0.248394 1.967406
v 10.554194 -0.235822 0.446237
v 10.063888 -0.235822 0.446237
v 10.063888 -0.235822 1.967406
v 10.554194 -0.235822 1.967406
v 6.858027 -0.248247 4.230418
v 6.858027 -0.248247 2.457766
v 7.348335 -0.248247 2.457766
v 7.348335 -0.248247 4.230418
v 7.348335 -0.235675 2.457766
v 6.858027 -0.235675 2.457766
v 6.858027 -0.235675 4.230418
v 7.348335 -0.235675 4.230418
v 6.292287 -0.248247 4.230418
v 6.292287 -0.248247 2.457766
v 6.782595 -0.248247 2.457766
v 6.782595 -0.248247 4.230418
v 6.782595 -0.235675 2.457766
v 6.292287 -0.235675 2.457766
v 6.292287 -0.235675 4.230418
v 6.782595 -0.235675 4.230418
v 6.858027 -0.248394 1.967405
v 6.858027 -0.248394 0.446237
v 7.348335 -0.248394 0.446237
v 7.348335 -0.248394 1.967405
v 7.348335 -0.235822 0.446237
v 6.858027 -0.235822 0.446237
v 6.858027 -0.235822 1.967405
v 7.348335 -0.235822 1.967405
v 6.292287 -0.248394 1.967405
v 6.292287 -0.248394 0.446237
v 6.782595 -0.248394 0.446237
v 6.782595 -0.248394 1.967405
v 6.782595 -0.235822 0.446237
v 6.292287 -0.235822 0.446237
v 6.292287 -0.235822 1.967405
v 6.782595 -0.235822 1.967405
v 8.743827 -0.248247 4.230418
v 8.743827 -0.248247 2.457766
v 9.234135 -0.248247 2.457766
v 9.234135 -0.248247 4.230418
v 9.234135 -0.235675 2.457766
v 8.743827 -0.235675 2.457766
v 8.743827 -0.235675 4.230418
v 9.234135 -0.235675 4.230418
v 8.178087 -0.248247 4.230418
v 8.178087 -0.248247 2.457766
v 8.668395 -0.248247 2.457766
v 8.668395 -0.248247 4.230418
v 8.668395 -0.235675 2.457766
v 8.178087 -0.235675 2.457766
v 8.178087 -0.235675 4.230418
v 8.668395 -0.235675 4.230418
v 8.743827 -0.248394 1.967406
v 8.743827 -0.248394 0.446237
v 9.234135 -0.248394 0.446237
v 9.234135 -0.248394 1.967406
v 9.234135 -0.235822 0.446237
v 8.743827 -0.235822 0.446237
v 8.743827 -0.235822 1.967406
v 9.234135 -0.235822 1.967406
v 8.178087 -0.248394 1.967406
v 8.178087 -0.248394 0.446237
v 8.668395 -0.248394 0.446237
v 8.668395 -0.248394 1.967406
v 8.668395 -0.235822 0.446237
v 8.178087 -0.235822 0.446237
v 8.178087 -0.235822 1.967406
v 8.668395 -0.235822 1.967406
v 4.972227 -0.248248 4.230418
v 4.972227 -0.248248 2.457766
v 5.462535 -0.248248 2.457766
v 5.462535 -0.248248 4.230418
v 5.462535 -0.235676 2.457766
v 4.972227 -0.235676 2.457766
v 4.972227 -0.235676 4.230418
v 5.462535 -0.235676 4.230418
v 4.406487 -0.248248 4.230418
v 4.406487 -0.248248 2.457766
v 4.896795 -0.248248 2.457766
v 4.896795 -0.248248 4.230418
v 4.896795 -0.235676 2.457766
v 4.406487 -0.235676 2.457766
v 4.406487 -0.235676 4.230418
v 4.896795 -0.235676 4.230418
v 4.972227 -0.248394 1.967405
v 4.972227 -0.248394 0.446237
v 5.462535 -0.248394 0.446237
v 5.462535 -0.248394 1.967405
v 5.462535 -0.235823 0.446237
v 4.972227 -0.235823 0.446237
v 4.972227 -0.235823 1.967405
v 5.462535 -0.235823 1.967405
v 4.406487 -0.248394 1.967405
v 4.406487 -0.248394 0.446237
v 4.896795 -0.248394 0.446237
v 4.896795 -0.248394 1.967405
v 4.896795 -0.235823 0.446237
v 4.406487 -0.235823 0.446237
v 4.406487 -0.235823 1.967405
v 4.896795 -0.235823 1.967405
vn -0.0000 1.0000 -0.0000
vn -0.0000 -1.0000 -0.0000
vn 1.0000 -0.0000 -0.0000
vn -1.0000 -0.0000 -0.0000
vn -0.0000 -0.0000 1.0000
vn -0.0000 -0.0000 -1.0000
vt -25.910004 8.229904
vt -26.690006 8.229904
vt -26.690006 5.409905
vt -25.910004 5.409905
vt 26.690006 5.409905
vt 26.690006 8.229904
vt 25.910004 8.229904
vt 25.910004 5.409905
vt -27.325270 8.229904
vt -27.325270 5.409905
vt -27.305271 5.409905
vt -27.305271 8.229904
vt 27.305271 5.409905
vt 27.325270 5.409905
vt 27.325270 8.229904
vt 27.305271 8.229904
vt 27.325270 25.910004
vt 27.325270 26.690006
vt 27.305271 26.690006
vt 27.305271 25.910004
vt -27.305271 26.690006
vt -27.325270 26.690006
vt -27.325270 25.910004
vt -27.305271 25.910004
vt -25.010006 8.229904
vt -25.790005 8.229904
vt -25.790005 5.409905
vt -25.010006 5.409905
vt 25.790005 5.409905
vt 25.790005 8.229904
vt 25.010006 8.229904
vt 25.010006 5.409905
vt 27.325272 5.409905
vt 27.325272 8.229904
vt 27.325272 25.010006
vt 27.325270 25.790005
vt 27.305271 25.790005
vt 27.305271 25.010006
vt -27.305271 25.790005
vt -27.325270 25.790005
vt -27.325272 25.010006
vt -27.305271 25.010006
vt -25.910004 4.629821
vt -26.690006 4.629821
vt -26.690006 2.209891
vt -25.910004 2.209891
vt 26.690006 2.209891
vt 26.690006 4.629821
vt 25.910004 4.629821
vt 25.910004 2.209891
vt -27.325037 4.629821
vt -27.325037 2.209891
vt -27.305037 2.209891
vt -27.305037 4.629821
vt 27.305037 2.209891
vt 27.325037 2.209891
vt 27.325037 4.629821
vt 27.305037 4.629821
vt 27.325037 25.910004
vt 27.325037 26.690006
vt 27.305037 26.690006
vt 27.305037 25.910004
vt -27.305037 26.690006
vt -27.325037 26.690006
vt -27.325037 25.910004
vt -27.305037 25.910004
vt -25.010006 4.629821
vt -25.790005 4.629821
vt -25.790005 2.209891
vt -25.010006 2.209891
vt 25.790005 2.209891
vt 25.790005 4.629821
vt 25.010006 4.629821
vt 25.010006 2.209891
vt 27.305038 2.209891
vt 27.325039 2.209891
vt 27.325039 4.629821
vt 27.305038 4.629821
vt 27.325039 25.010006
vt 27.325037 25.790005
vt 27.305037 25.790005
vt 27.305038 25.010006
vt -27.305037 25.790005
vt -27.325037 25.790005
vt -27.325039 25.010006
vt -27.305038 25.010006
vt -4.910005 4.629821
vt -5.690004 4.629821
vt -5.690004 2.209891
vt -4.910005 2.209891
vt 5.690004 2.209891
vt 5.690004 4.629821
vt 4.910005 4.629821
vt 4.910005 2.209891
vt -27.325039 4.629821
vt -27.325039 2.209891
vt -27.305038 2.209891
vt -27.305038 4.629821
vt 27.325039 4.910005
vt 27.325039 5.690004
vt 27.305038 5.690004
vt 27.305038 4.910005
vt -27.305038 5.690004
vt -27.325039 5.690004
vt -27.325039 4.910005
vt -27.305038 4.910005
vt -4.010005 4.629821
vt -4.790005 4.629821
vt -4.790005 2.209891
vt -4.010005 2.209891
vt 4.790005 2.209891
vt 4.790005 4.629821
vt 4.010005 4.629821
vt 4.010005 2.209891
vt 27.325039 4.010005
vt 27.325039 4.790005
vt 27.305038 4.790005
vt 27.305038 4.010005
vt -27.305038 4.790005
vt -27.325039 4.790005
vt -27.325039 4.010005
vt -27.305038 4.010005
vt -4.910005 8.229904
vt -5.690004 8.229904
vt -5.690004 5.409905
vt -4.910005 5.409905
vt 5.690004 5.409905
vt 5.690004 8.229904
vt 4.910005 8.229904
vt 4.910005 5.409905
vt -27.325272 8.229904
vt -27.325272 5.409905
vt -27.305273 5.409905
vt -27.305273 8.229904
vt 27.305273 5.409905
vt 27.305273 8.229904
vt 27.325272 4.910005
vt 27.325272 5.690004
vt 27.305273 5.690004
vt 27.305273 4.910005
vt -27.305273 5.690004
vt -27.325272 5.690004
vt -27.325272 4.910005
vt -27.305273 4.910005
vt -4.010005 8.229904
vt -4.790005 8.229904
vt -4.790005 5.409905
vt -4.010005 5.409905
vt 4.790005 5.409905
vt 4.790005 8.229904
vt 4.010005 8.229904
vt 4.010005 5.409905
vt 27.325272 4.010005
vt 27.325272 4.790005
vt 27.305273 4.790005
vt 27.305273 4.010005
vt -27.305273 4.790005
vt -27.325272 4.790005
vt -27.325272 4.010005
vt -27.305273 4.010005
vt -19.910006 8.229904
vt -20.690004 8.229904
vt -20.690004 5.409904
vt -19.910006 5.409904
vt 20.690004 5.409904
vt 20.690004 8.229904
vt 19.910006 8.229904
vt 19.910006 5.409904
vt -27.325272 5.409904
vt -27.305271 5.409904
vt 27.305271 5.409904
vt 27.325272 5.409904
vt 27.325272 19.910006
vt 27.325272 20.690004
vt 27.305271 20.690004
vt 27.305271 19.910006
vt -27.305271 20.690004
vt -27.325272 20.690004
vt -27.325272 19.910006
vt -27.305271 19.910006
vt -19.010006 8.229904
vt -19.790005 8.229904
vt -19.790005 5.409904
vt -19.010006 5.409904
vt 19.790005 5.409904
vt 19.790005 8.229904
vt 19.010006 8.229904
vt 19.010006 5.409904
vt 27.325272 19.010006
vt 27.325272 19.790005
vt 27.305271 19.790005
vt 27.305271 19.010006
vt -27.305271 19.790005
vt -27.325272 19.790005
vt -27.325272 19.010006
vt -27.305271 19.010006
vt -19.910006 4.629821
vt -20.690004 4.629821
vt -20.690004 2.209891
vt -19.910006 2.209891
vt 20.690004 2.209891
vt 20.690004 4.629821
vt 19.910006 4.629821
vt 19.910006 2.209891
vt 27.325039 19.910006
vt 27.325039 20.690004
vt 27.305038 20.690004
vt 27.305038 19.910006
vt -27.305038 20.690004
vt -27.325039 20.690004
vt -27.325039 19.910006
vt -27.305038 19.910006
vt -19.010006 4.629821
vt -19.790005 4.629821
vt -19.790005 2.209891
vt -19.010006 2.209891
vt 19.790005 2.209891
vt 19.790005 4.629821
vt 19.010006 4.629821
vt 19.010006 2.209891
vt 27.325039 19.010006
vt 27.325039 19.790005
vt 27.305038 19.790005
vt 27.305038 19.010006
vt -27.305038 19.790005
vt -27.325039 19.790005
vt -27.325039 19.010006
vt -27.305038 19.010006
vt -22.910006 8.229904
vt -23.690006 8.229904
vt -23.690006 5.409904
vt -22.910006 5.409904
vt 23.690006 5.409904
vt 23.690006 8.229904
vt 22.910006 8.229904
vt 22.910006 5.409904
vt -27.325272 5.409904
vt -27.305271 5.409904
vt 27.305271 5.409904
vt 27.325272 5.409904
vt 27.325272 22.910006
vt 27.325272 23.690006
vt 27.305271 23.690006
vt 27.305271 22.910006
vt -27.305271 23.690006
vt -27.325272 23.690006
vt -27.325272 22.910006
vt -27.305271 22.910006
vt -22.010006 8.229904
vt -22.790005 8.229904
vt -22.790005 5.409904
vt -22.010006 5.409904
vt 22.790005 5.409904
vt 22.790005 8.229904
vt 22.010006 8.229904
vt 22.010006 5.409904
vt 27.325272 22.010006
vt 27.325272 22.790005
vt 27.305271 22.790005
vt 27.305271 22.010006
vt -27.305271 22.790005
vt -27.325272 22.790005
vt -27.325272 22.010006
vt -27.305271 22.010006
vt -22.910006 4.629821
vt -23.690006 4.629821
vt -23.690006 2.209891
vt -22.910006 2.209891
vt 23.690006 2.209891
vt 23.690006 4.629821
vt 22.910006 4.629821
vt 22.910006 2.209891
vt 27.325039 22.910006
vt 27.325039 23.690006
vt 27.305038 23.690006
vt 27.305038 22.910006
vt -27.305038 23.690006
vt -27.325039 23.690006
vt -27.325039 22.910006
vt -27.305038 22.910006
vt -22.010006 4.629821
vt -22.790005 4.629821
vt -22.790005 2.209891
vt -22.010006 2.209891
vt 22.790005 2.209891
vt 22.790005 4.629821
vt 22.010006 4.629821
vt 22.010006 2.209891
vt 27.325039 22.010006
vt 27.325039 22.790005
vt 27.305038 22.790005
vt 27.305038 22.010006
vt -27.305038 22.790005
vt -27.325039 22.790005
vt -27.325039 22.010006
vt -27.305038 22.010006
vt -16.910006 8.229904
vt -17.690004 8.229904
vt -17.690004 5.409904
vt -16.910006 5.409904
vt 17.690004 5.409904
vt 17.690004 8.229904
vt 16.910006 8.229904
vt 16.910006 5.409904
vt 27.325272 16.910006
vt 27.325272 17.690004
vt 27.305271 17.690004
vt 27.305271 16.910006
vt -27.305271 17.690004
vt -27.325272 17.690004
vt -27.325272 16.910006
vt -27.305271 16.910006
vt -16.010006 8.229904
vt -16.790005 8.229904
vt -16.790005 5.409904
vt -16.010006 5.409904
vt 16.790005 5.409904
vt 16.790005 8.229904
vt 16.010006 8.229904
vt 16.010006 5.409904
vt 27.325272 16.010006
vt 27.325272 16.790005
vt 27.305271 16.790005
vt 27.305271 16.010006
vt -27.305271 16.790005
vt -27.325272 16.790005
vt -27.325272 16.010006
vt -27.305271 16.010006
vt -16.910006 4.629821
vt -17.690004 4.629821
vt -17.690004 2.209891
vt -16.910006 2.209891
vt 17.690004 2.209891
vt 17.690004 4.629821
vt 16.910006 4.629821
vt 16.910006 2.209891
vt 27.325039 16.910006
vt 27.325039 17.690004
vt 27.305038 17.690004
vt 27.305038 16.910006
vt -27.305038 17.690004
vt -27.325039 17.690004
vt -27.325039 16.910006
vt -27.305038 16.910006
vt -16.010006 4.629821
vt -16.790005 4.629821
vt -16.790005 2.209891
vt -16.010006 2.209891
vt 16.790005 2.209891
vt 16.790005 4.629821
vt 16.010006 4.629821
vt 16.010006 2.209891
vt 27.325039 16.010006
vt 27.325039 16.790005
vt 27.305038 16.790005
vt 27.305038 16.010006
vt -27.305038 16.790005
vt -27.325039 16.790005
vt -27.325039 16.010006
vt -27.305038 16.010006
vt -13.910005 8.229904
vt -14.690004 8.229904
vt -14.690004 5.409904
vt -13.910005 5.409904
vt 14.690004 5.409904
vt 14.690004 8.229904
vt 13.910005 8.229904
vt 13.910005 5.409904
vt 27.325272 13.910005
vt 27.325272 14.690004
vt 27.305271 14.690004
vt 27.305271 13.910005
vt -27.305271 14.690004
vt -27.325272 14.690004
vt -27.325272 13.910005
vt -27.305271 13.910005
vt -13.010005 8.229904
vt -13.790005 8.229904
vt -13.790005 5.409904
vt -13.010005 5.409904
vt 13.790005 5.409904
vt 13.790005 8.229904
vt 13.010005 8.229904
vt 13.010005 5.409904
vt 27.325272 13.010005
vt 27.325272 13.790005
vt 27.305271 13.790005
vt 27.305271 13.010005
vt -27.305271 13.790005
vt -27.325272 13.790005
vt -27.325272 13.010005
vt -27.305271 13.010005
vt -13.910005 4.629821
vt -14.690004 4.629821
vt -14.690004 2.209891
vt -13.910005 2.209891
vt 14.690004 2.209891
vt 14.690004 4.629821
vt 13.910005 4.629821
vt 13.910005 2.209891
vt 27.325039 13.910005
vt 27.325039 14.690004
vt 27.305038 14.690004
vt 27.305038 13.910005
vt -27.305038 14.690004
vt -27.325039 14.690004
vt -27.325039 13.910005
vt -27.305038 13.910005
vt -13.010005 4.629821
vt -13.790005 4.629821
vt -13.790005 2.209891
vt -13.010005 2.209891
vt 13.790005 2.209891
vt 13.790005 4.629821
vt 13.010005 4.629821
vt 13.010005 2.209891
vt 27.325039 13.010005
vt 27.325039 13.790005
vt 27.305038 13.790005
vt 27.305038 13.010005
vt -27.305038 13.790005
vt -27.325039 13.790005
vt -27.325039 13.010005
vt -27.305038 13.010005
vt -10.910005 8.229904
vt -11.690004 8.229904
vt -11.690004 5.409904
vt -10.910005 5.409904
vt 11.690004 5.409904
vt 11.690004 8.229904
vt 10.910005 8.229904
vt 10.910005 5.409904
vt 27.325272 10.910005
vt 27.325272 11.690004
vt 27.305271 11.690004
vt 27.305271 10.910005
vt -27.305271 11.690004
vt -27.325272 11.690004
vt -27.325272 10.910005
vt -27.305271 10.910005
vt -10.010005 8.229904
vt -10.790005 8.229904
vt -10.790005 5.409904
vt -10.010005 5.409904
vt 10.790005 5.409904
vt 10.790005 8.229904
vt 10.010005 8.229904
vt 10.010005 5.409904
vt 27.325272 10.010005
vt 27.325272 10.790005
vt 27.305271 10.790005
vt 27.305271 10.010005
vt -27.305271 10.790005
vt -27.325272 10.790005
vt -27.325272 10.010005
vt -27.305271 10.010005
vt -10.910005 4.629821
vt -11.690004 4.629821
vt -11.690004 2.209891
vt -10.910005 2.209891
vt 11.690004 2.209891
vt 11.690004 4.629821
vt 10.910005 4.629821
vt 10.910005 2.209891
vt 27.325039 10.910005
vt 27.325039 11.690004
vt 27.305038 11.690004
vt 27.305038 10.910005
vt -27.305038 11.690004
vt -27.325039 11.690004
vt -27.325039 10.910005
vt -27.305038 10.910005
vt -10.010005 4.629821
vt -10.790005 4.629821
vt -10.790005 2.209891
vt -10.010005 2.209891
vt 10.790005 2.209891
vt 10.790005 4.629821
vt 10.010005 4.629821
vt 10.010005 2.209891
vt 27.325039 10.010005
vt 27.325039 10.790005
vt 27.305038 10.790005
vt 27.305038 10.010005
vt -27.305038 10.790005
vt -27.325039 10.790005
vt -27.325039 10.010005
vt -27.305038 10.010005
vt 25.910000 8.229906
vt 25.910000 5.409906
vt 26.690002 5.409906
vt 26.690002 8.229906
vt -26.690002 5.409906
vt -25.910000 5.409906
vt -25.910000 8.229906
vt -26.690002 8.229906
vt -0.374919 8.229906
vt -0.394918 8.229906
vt -0.394918 5.409906
vt -0.374919 5.409906
vt 0.394918 5.409906
vt 0.394918 8.229906
vt 0.374919 8.229906
vt 0.374919 5.409906
vt 0.374919 25.910000
vt 0.394918 25.910000
vt 0.394918 26.690002
vt 0.374919 26.690002
vt -0.394918 26.690002
vt -0.394918 25.910000
vt -0.374919 25.910000
vt -0.374919 26.690002
vt 25.010002 8.229906
vt 25.010002 5.409906
vt 25.790001 5.409906
vt 25.790001 8.229906
vt -25.790001 5.409906
vt -25.010002 5.409906
vt -25.010002 8.229906
vt -25.790001 8.229906
vt 0.394919 5.409906
vt 0.394919 8.229906
vt 0.374920 8.229906
vt 0.374920 5.409906
vt 0.374920 25.010002
vt 0.394919 25.010002
vt 0.394918 25.790001
vt 0.374919 25.790001
vt -0.394918 25.790001
vt -0.394919 25.010002
vt -0.374920 25.010002
vt -0.374919 25.790001
vt 25.910000 4.629822
vt 25.910000 2.209891
vt 26.690002 2.209891
vt 26.690002 4.629822
vt -26.690002 2.209891
vt -25.910000 2.209891
vt -25.910000 4.629822
vt -26.690002 4.629822
vt -0.375153 4.629822
vt -0.395152 4.629822
vt -0.395152 2.209891
vt -0.375153 2.209891
vt 0.395152 2.209891
vt 0.395152 4.629822
vt 0.375153 4.629822
vt 0.375153 2.209891
vt 0.375153 25.910000
vt 0.395152 25.910000
vt 0.395152 26.690002
vt 0.375153 26.690002
vt -0.395152 26.690002
vt -0.395152 25.910000
vt -0.375153 25.910000
vt -0.375153 26.690002
vt 25.010002 4.629822
vt 25.010002 2.209891
vt 25.790001 2.209891
vt 25.790001 4.629822
vt -25.790001 2.209891
vt -25.010002 2.209891
vt -25.010002 4.629822
vt -25.790001 4.629822
vt 0.395153 2.209891
vt 0.395153 4.629822
vt 0.375154 4.629822
vt 0.375154 2.209891
vt 0.375154 25.010002
vt 0.395153 25.010002
vt 0.395152 25.790001
vt 0.375153 25.790001
vt -0.395152 25.790001
vt -0.395153 25.010002
vt -0.375154 25.010002
vt -0.375153 25.790001
vt -7.910006 8.229904
vt -8.690006 8.229904
vt -8.690006 5.409905
vt -7.910006 5.409905
vt 8.690006 5.409905
vt 8.690006 8.229904
vt 7.910006 8.229904
vt 7.910006 5.409905
vt 27.325272 7.910006
vt 27.325272 8.690006
vt 27.305273 8.690006
vt 27.305273 7.910006
vt -27.305273 8.690006
vt -27.325272 8.690006
vt -27.325272 7.910006
vt -27.305273 7.910006
vt -7.010006 8.229904
vt -7.790006 8.229904
vt -7.790006 5.409905
vt -7.010006 5.409905
vt 7.790006 5.409905
vt 7.790006 8.229904
vt 7.010006 8.229904
vt 7.010006 5.409905
vt 27.325272 7.010006
vt 27.325272 7.790006
vt 27.305273 7.790006
vt 27.305273 7.010006
vt -27.305273 7.790006
vt -27.325272 7.790006
vt -27.325272 7.010006
vt -27.305273 7.010006
vt -7.910006 4.629821
vt -8.690006 4.629821
vt -8.690006 2.209891
vt -7.910006 2.209891
vt 8.690006 2.209891
vt 8.690006 4.629821
vt 7.910006 4.629821
vt 7.910006 2.209891
vt 27.325039 7.910006
vt 27.325039 8.690006
vt 27.305038 8.690006
vt 27.305038 7.910006
vt -27.305038 8.690006
vt -27.325039 8.690006
vt -27.325039 7.910006
vt -27.305038 7.910006
vt -7.010006 4.629821
vt -7.790006 4.629821
vt -7.790006 2.209891
vt -7.010006 2.209891
vt 7.790006 2.209891
vt 7.790006 4.629821
vt 7.010006 4.629821
vt 7.010006 2.209891
vt 27.325039 7.010006
vt 27.325039 7.790006
vt 27.305038 7.790006
vt 27.305038 7.010006
vt -27.305038 7.790006
vt -27.325039 7.790006
vt -27.325039 7.010006
vt -27.305038 7.010006
vt 22.910002 8.229904
vt 22.910002 5.409904
vt 23.690002 5.409904
vt 23.690002 8.229904
vt -23.690002 5.409904
vt -22.910002 5.409904
vt -22.910002 8.229904
vt -23.690002 8.229904
vt -0.374920 8.229904
vt -0.394919 8.229904
vt -0.394919 5.409904
vt -0.374920 5.409904
vt 0.394919 5.409904
vt 0.394919 8.229904
vt 0.374920 8.229904
vt 0.374920 5.409904
vt 0.374920 22.910002
vt 0.394919 22.910002
vt 0.394919 23.690002
vt 0.374920 23.690002
vt -0.394919 23.690002
vt -0.394919 22.910002
vt -0.374920 22.910002
vt -0.374920 23.690002
vt 22.010002 8.229904
vt 22.010002 5.409904
vt 22.790001 5.409904
vt 22.790001 8.229904
vt -22.790001 5.409904
vt -22.010002 5.409904
vt -22.010002 8.229904
vt -22.790001 8.229904
vt 0.374920 22.010002
vt 0.394919 22.010002
vt 0.394919 22.790001
vt 0.374920 22.790001
vt -0.394919 22.790001
vt -0.394919 22.010002
vt -0.374920 22.010002
vt -0.374920 22.790001
vt 22.910002 4.629821
vt 22.910002 2.209891
vt 23.690002 2.209891
vt 23.690002 4.629821
vt -23.690002 2.209891
vt -22.910002 2.209891
vt -22.910002 4.629821
vt -23.690002 4.629821
vt -0.375154 4.629821
vt -0.395153 4.629821
vt -0.395153 2.209891
vt -0.375154 2.209891
vt 0.395153 2.209891
vt 0.395153 4.629821
vt 0.375154 4.629821
vt 0.375154 2.209891
vt 0.375154 22.910002
vt 0.395153 22.910002
vt 0.395153 23.690002
vt 0.375154 23.690002
vt -0.395153 23.690002
vt -0.395153 22.910002
vt -0.375154 22.910002
vt -0.375154 23.690002
vt 22.010002 4.629821
vt 22.010002 2.209891
vt 22.790001 2.209891
vt 22.790001 4.629821
vt -22.790001 2.209891
vt -22.010002 2.209891
vt -22.010002 4.629821
vt -22.790001 4.629821
vt 0.375154 22.010002
vt 0.395153 22.010002
vt 0.395153 22.790001
vt 0.375154 22.790001
vt -0.395153 22.790001
vt -0.395153 22.010002
vt -0.375154 22.010002
vt -0.375154 22.790001
vt 4.910001 8.229905
vt 4.910001 5.409905
vt 5.690001 5.409905
vt 5.690001 8.229905
vt -5.690001 5.409905
vt -4.910001 5.409905
vt -4.910001 8.229905
vt -5.690001 8.229905
vt -0.374922 8.229905
vt -0.394921 8.229905
vt -0.394921 5.409905
vt -0.374922 5.409905
vt 0.394921 5.409905
vt 0.394921 8.229905
vt 0.374922 8.229905
vt 0.374922 5.409905
vt 0.374922 4.910001
vt 0.394921 4.910001
vt 0.394921 5.690001
vt 0.374922 5.690001
vt -0.394921 5.690001
vt -0.394921 4.910001
vt -0.374922 4.910001
vt -0.374922 5.690001
vt 4.010001 8.229905
vt 4.010001 5.409905
vt 4.790001 5.409905
vt 4.790001 8.229905
vt -4.790001 5.409905
vt -4.010001 5.409905
vt -4.010001 8.229905
vt -4.790001 8.229905
vt 0.374922 4.010001
vt 0.394921 4.010001
vt 0.394921 4.790001
vt 0.374922 4.790001
vt -0.394921 4.790001
vt -0.394921 4.010001
vt -0.374922 4.010001
vt -0.374922 4.790001
vt 4.910001 4.629821
vt 4.910001 2.209891
vt 5.690001 2.209891
vt 5.690001 4.629822
vt -5.690001 2.209891
vt -4.910001 2.209891
vt -4.910001 4.629821
vt -5.690001 4.629822
vt -0.375155 4.629822
vt -0.395155 4.629822
vt -0.395155 2.209891
vt -0.375155 2.209891
vt 0.395155 2.209891
vt 0.395155 4.629821
vt 0.375155 4.629821
vt 0.375155 2.209891
vt 0.375155 4.910001
vt 0.395155 4.910001
vt 0.395155 5.690001
vt 0.375155 5.690001
vt -0.395155 5.690001
vt -0.395155 4.910001
vt -0.375155 4.910001
vt -0.375155 5.690001
vt 4.010001 4.629821
vt 4.010001 2.209891
vt 4.790001 2.209891
vt 4.790001 4.629821
vt -4.790001 2.209891
vt -4.010001 2.209891
vt -4.010001 4.629821
vt -4.790001 4.629821
vt -0.375155 4.629821
vt -0.395155 4.629821
vt 0.375155 4.010001
vt 0.395155 4.010001
vt 0.395155 4.790001
vt 0.375155 4.790001
vt -0.395155 4.790001
vt -0.395155 4.010001
vt -0.375155 4.010001
vt -0.375155 4.790001
vt 19.910002 8.229904
vt 19.910002 5.409904
vt 20.690002 5.409904
vt 20.690002 8.229904
vt -20.690002 5.409904
vt -19.910002 5.409904
vt -19.910002 8.229904
vt -20.690002 8.229904
vt -0.394919 5.409904
vt -0.374920 5.409904
vt 0.394919 5.409904
vt 0.374920 5.409904
vt 0.374920 19.910002
vt 0.394919 19.910002
vt 0.394919 20.690002
vt 0.374920 20.690002
vt -0.394919 20.690002
vt -0.394919 19.910002
vt -0.374920 19.910002
vt -0.374920 20.690002
vt 19.010002 8.229904
vt 19.010002 5.409904
vt 19.790001 5.409904
vt 19.790001 8.229904
vt -19.790001 5.409904
vt -19.010002 5.409904
vt -19.010002 8.229904
vt -19.790001 8.229904
vt 0.374920 19.010002
vt 0.394919 19.010002
vt 0.394919 19.790001
vt 0.374920 19.790001
vt -0.394919 19.790001
vt -0.394919 19.010002
vt -0.374920 19.010002
vt -0.374920 19.790001
vt 19.910002 4.629821
vt 19.910002 2.209891
vt 20.690002 2.209891
vt 20.690002 4.629821
vt -20.690002 2.209891
vt -19.910002 2.209891
vt -19.910002 4.629821
vt -20.690002 4.629821
vt 0.375154 19.910002
vt 0.395153 19.910002
vt 0.395153 20.690002
vt 0.375154 20.690002
vt -0.395153 20.690002
vt -0.395153 19.910002
vt -0.375154 19.910002
vt -0.375154 20.690002
vt 19.010002 4.629821
vt 19.010002 2.209891
vt 19.790001 2.209891
vt 19.790001 4.629821
vt -19.790001 2.209891
vt -19.010002 2.209891
vt -19.010002 4.629821
vt -19.790001 4.629821
vt 0.375154 19.010002
vt 0.395153 19.010002
vt 0.395153 19.790001
vt 0.375154 19.790001
vt -0.395153 19.790001
vt -0.395153 19.010002
vt -0.375154 19.010002
vt -0.375154 19.790001
vt 16.910002 8.229904
vt 16.910002 5.409905
vt 17.690002 5.409905
vt 17.690002 8.229904
vt -17.690002 5.409905
vt -16.910002 5.409905
vt -16.910002 8.229904
vt -17.690002 8.229904
vt -0.394919 5.409905
vt -0.374920 5.409905
vt 0.394920 5.409905
vt 0.394920 8.229904
vt 0.374921 8.229904
vt 0.374921 5.409905
vt 0.374921 16.910002
vt 0.394920 16.910002
vt 0.394919 17.690002
vt 0.374920 17.690002
vt -0.394919 17.690002
vt -0.394920 16.910002
vt -0.374921 16.910002
vt -0.374920 17.690002
vt 16.010002 8.229904
vt 16.010002 5.409905
vt 16.790001 5.409905
vt 16.790001 8.229904
vt -16.790001 5.409905
vt -16.010002 5.409905
vt -16.010002 8.229904
vt -16.790001 8.229904
vt -0.374921 8.229904
vt -0.394920 8.229904
vt -0.394920 5.409905
vt -0.374921 5.409905
vt 0.374921 16.010002
vt 0.394920 16.010002
vt 0.394920 16.790001
vt 0.374921 16.790001
vt -0.394920 16.790001
vt -0.394920 16.010002
vt -0.374921 16.010002
vt -0.374921 16.790001
vt 16.910002 4.629821
vt 16.910002 2.209891
vt 17.690002 2.209891
vt 17.690002 4.629821
vt -17.690002 2.209891
vt -16.910002 2.209891
vt -16.910002 4.629821
vt -17.690002 4.629821
vt 0.395154 2.209891
vt 0.395154 4.629821
vt 0.375154 4.629821
vt 0.375154 2.209891
vt 0.375154 16.910002
vt 0.395154 16.910002
vt 0.395153 17.690002
vt 0.375154 17.690002
vt -0.395153 17.690002
vt -0.395154 16.910002
vt -0.375154 16.910002
vt -0.375154 17.690002
vt 16.010002 4.629821
vt 16.010002 2.209891
vt 16.790001 2.209891
vt 16.790001 4.629821
vt -16.790001 2.209891
vt -16.010002 2.209891
vt -16.010002 4.629821
vt -16.790001 4.629821
vt -0.375154 4.629821
vt -0.395154 4.629821
vt -0.395154 2.209891
vt -0.375154 2.209891
vt 0.375154 16.010002
vt 0.395154 16.010002
vt 0.395154 16.790001
vt 0.375154 16.790001
vt -0.395154 16.790001
vt -0.395154 16.010002
vt -0.375154 16.010002
vt -0.375154 16.790001
vt 10.910002 8.229904
vt 10.910002 5.409904
vt 11.690001 5.409904
vt 11.690001 8.229904
vt -11.690001 5.409904
vt -10.910002 5.409904
vt -10.910002 8.229904
vt -11.690001 8.229904
vt -0.394920 5.409904
vt -0.374921 5.409904
vt 0.394920 5.409904
vt 0.374921 5.409904
vt 0.374921 10.910002
vt 0.394920 10.910002
vt 0.394920 11.690001
vt 0.374921 11.690001
vt -0.394920 11.690001
vt -0.394920 10.910002
vt -0.374921 10.910002
vt -0.374921 11.690001
vt 10.010001 8.229904
vt 10.010001 5.409904
vt 10.790001 5.409904
vt 10.790001 8.229904
vt -10.790001 5.409904
vt -10.010001 5.409904
vt -10.010001 8.229904
vt -10.790001 8.229904
vt 0.374921 10.010001
vt 0.394920 10.010001
vt 0.394920 10.790001
vt 0.374921 10.790001
vt -0.394920 10.790001
vt -0.394920 10.010001
vt -0.374921 10.010001
vt -0.374921 10.790001
vt 10.910002 4.629821
vt 10.910002 2.209891
vt 11.690001 2.209891
vt 11.690001 4.629821
vt -11.690001 2.209891
vt -10.910002 2.209891
vt -10.910002 4.629821
vt -11.690001 4.629821
vt -0.375154 4.629821
vt -0.395154 4.629821
vt 0.395154 4.629821
vt 0.375154 4.629821
vt 0.375154 10.910002
vt 0.395154 10.910002
vt 0.395154 11.690001
vt 0.375154 11.690001
vt -0.395154 11.690001
vt -0.395154 10.910002
vt -0.375154 10.910002
vt -0.375154 11.690001
vt 10.010001 4.629821
vt 10.010001 2.209891
vt 10.790001 2.209891
vt 10.790001 4.629821
vt -10.790001 2.209891
vt -10.010001 2.209891
vt -10.010001 4.629821
vt -10.790001 4.629821
vt 0.375154 10.010001
vt 0.395154 10.010001
vt 0.395154 10.790001
vt 0.375154 10.790001
vt -0.395154 10.790001
vt -0.395154 10.010001
vt -0.375154 10.010001
vt -0.375154 10.790001
vt 13.910002 8.229904
vt 13.910002 5.409904
vt 14.690001 5.409904
vt 14.690001 8.229904
vt -14.690001 5.409904
vt -13.910002 5.409904
vt -13.910002 8.229904
vt -14.690001 8.229904
vt -0.394920 5.409904
vt -0.374921 5.409904
vt 0.394920 5.409904
vt 0.374921 5.409904
vt 0.374921 13.910002
vt 0.394920 13.910002
vt 0.394920 14.690001
vt 0.374921 14.690001
vt -0.394920 14.690001
vt -0.394920 13.910002
vt -0.374921 13.910002
vt -0.374921 14.690001
vt 13.010001 8.229904
vt 13.010001 5.409904
vt 13.790002 5.409904
vt 13.790002 8.229904
vt -13.790002 5.409904
vt -13.010001 5.409904
vt -13.010001 8.229904
vt -13.790002 8.229904
vt 0.374921 13.010001
vt 0.394920 13.010001
vt 0.394920 13.790002
vt 0.374921 13.790002
vt -0.394920 13.790002
vt -0.394920 13.010001
vt -0.374921 13.010001
vt -0.374921 13.790002
vt 13.910002 4.629821
vt 13.910002 2.209891
vt 14.690001 2.209891
vt 14.690001 4.629821
vt -14.690001 2.209891
vt -13.910002 2.209891
vt -13.910002 4.629821
vt -14.690001 4.629821
vt 0.375154 13.910002
vt 0.395154 13.910002
vt 0.395154 14.690001
vt 0.375154 14.690001
vt -0.395154 14.690001
vt -0.395154 13.910002
vt -0.375154 13.910002
vt -0.375154 14.690001
vt 13.010001 4.629821
vt 13.010001 2.209891
vt 13.790002 2.209891
vt 13.790002 4.629821
vt -13.790002 2.209891
vt -13.010001 2.209891
vt -13.010001 4.629821
vt -13.790002 4.629821
vt 0.375154 13.010001
vt 0.395154 13.010001
vt 0.395154 13.790002
vt 0.375154 13.790002
vt -0.395154 13.790002
vt -0.395154 13.010001
vt -0.375154 13.010001
vt -0.375154 13.790002
vt 7.910002 8.229904
vt 7.910002 5.409904
vt 8.690001 5.409904
vt 8.690001 8.229904
vt -8.690001 5.409904
vt -7.910002 5.409904
vt -7.910002 8.229904
vt -8.690001 8.229904
vt -0.374922 8.229904
vt -0.394921 8.229904
vt -0.394921 5.409904
vt -0.374922 5.409904
vt 0.394921 5.409904
vt 0.394921 8.229904
vt 0.374922 8.229904
vt 0.374922 5.409904
vt 0.374922 7.910002
vt 0.394921 7.910002
vt 0.394921 8.690001
vt 0.374922 8.690001
vt -0.394921 8.690001
vt -0.394921 7.910002
vt -0.374922 7.910002
vt -0.374922 8.690001
vt 7.010002 8.229904
vt 7.010002 5.409904
vt 7.790002 5.409904
vt 7.790002 8.229904
vt -7.790002 5.409904
vt -7.010002 5.409904
vt -7.010002 8.229904
vt -7.790002 8.229904
vt 0.374922 7.010002
vt 0.394921 7.010002
vt 0.394921 7.790002
vt 0.374922 7.790002
vt -0.394921 7.790002
vt -0.394921 7.010002
vt -0.374922 7.010002
vt -0.374922 7.790002
vt 7.910002 4.629821
vt 7.910002 2.209891
vt 8.690001 2.209891
vt 8.690001 4.629821
vt -8.690001 2.209891
vt -7.910002 2.209891
vt -7.910002 4.629821
vt -8.690001 4.629821
vt -0.375155 4.629821
vt -0.395155 4.629821
vt -0.395155 2.209891
vt -0.375155 2.209891
vt 0.395155 2.209891
vt 0.395155 4.629821
vt 0.375155 4.629821
vt 0.375155 2.209891
vt 0.375155 7.910002
vt 0.395155 7.910002
vt 0.395155 8.690001
vt 0.375155 8.690001
vt -0.395155 8.690001
vt -0.395155 7.910002
vt -0.375155 7.910002
vt -0.375155 8.690001
vt 7.010002 4.629821
vt 7.010002 2.209891
vt 7.790002 2.209891
vt 7.790002 4.629821
vt -7.790002 2.209891
vt -7.010002 2.209891
vt -7.010002 4.629821
vt -7.790002 4.629821
vt 0.375155 7.010002
vt 0.395155 7.010002
vt 0.395155 7.790002
vt 0.375155 7.790002
vt -0.395155 7.790002
vt -0.395155 7.010002
vt -0.375155 7.010002
vt -0.375155 7.790002
s 0
f 1/1/1 2/2/1 3/3/1 4/4/1
f 5/5/2 6/6/2 7/7/2 8/8/2
f 6/9/3 5/10/3 3/11/3 2/12/3
f 4/13/4 8/14/4 7/15/4 1/16/4
f 7/17/5 6/18/5 2/19/5 1/20/5
f 3/21/6 5/22/6 8/23/6 4/24/6
f 9/25/1 10/26/1 11/27/1 12/28/1
f 13/29/2 14/30/2 15/31/2 16/32/2
f 14/9/3 13/10/3 11/11/3 10/12/3
f 12/13/4 16/33/4 15/34/4 9/16/4
f 15/35/5 14/36/5 10/37/5 9/38/5
f 11/39/6 13/40/6 16/41/6 12/42/6
f 17/43/1 18/44/1 19/45/1 20/46/1
f 21/47/2 22/48/2 23/49/2 24/50/2
f 22/51/3 21/52/3 19/53/3 18/54/3
f 20/55/4 24/56/4 23/57/4 17/58/4
f 23/59/5 22/60/5 18/61/5 17/62/5
f 19/63/6 21/64/6 24/65/6 20/66/6
f 25/67/1 26/68/1 27/69/1 28/70/1
f 29/71/2 30/72/2 31/73/2 32/74/2
f 30/51/3 29/52/3 27/53/3 26/54/3
f 28/75/4 32/76/4 31/77/4 25/78/4
f 31/79/5 30/80/5 26/81/5 25/82/5
f 27/83/6 29/84/6 32/85/6 28/86/6
f 33/87/1 34/88/1 35/89/1 36/90/1
f 37/91/2 38/92/2 39/93/2 40/94/2
f 38/95/3 37/96/3 35/97/3 34/98/3
f 36/75/4 40/76/4 39/77/4 33/78/4
f 39/99/5 38/100/5 34/101/5 33/102/5
f 35/103/6 37/104/6 40/105/6 36/106/6
f 41/107/1 42/108/1 43/109/1 44/110/1
f 45/111/2 46/112/2 47/113/2 48/114/2
f 46/95/3 45/96/3 43/97/3 42/98/3
f 44/75/4 48/76/4 47/77/4 41/78/4
f 47/115/5 46/116/5 42/117/5 41/118/5
f 43/119/6 45/120/6 48/121/6 44/122/6
f 49/123/1 50/124/1 51/125/1 52/126/1
f 53/127/2 54/128/2 55/129/2 56/130/2
f 54/131/3 53/132/3 51/133/3 50/134/3
f 52/135/4 56/33/4 55/34/4 49/136/4
f 55/137/5 54/138/5 50/139/5 49/140/5
f 51/141/6 53/142/6 56/143/6 52/144/6
f 57/145/1 58/146/1 59/147/1 60/148/1
f 61/149/2 62/150/2 63/151/2 64/152/2
f 62/131/3 61/132/3 59/133/3 58/134/3
f 60/135/4 64/33/4 63/34/4 57/136/4
f 63/153/5 62/154/5 58/155/5 57/156/5
f 59/157/6 61/158/6 64/159/6 60/160/6
f 65/161/1 66/162/1 67/163/1 68/164/1
f 69/165/2 70/166/2 71/167/2 72/168/2
f 70/131/3 69/169/3 67/170/3 66/12/3
f 68/171/4 72/172/4 71/34/4 65/16/4
f 71/173/5 70/174/5 66/175/5 65/176/5
f 67/177/6 69/178/6 72/179/6 68/180/6
f 73/181/1 74/182/1 75/183/1 76/184/1
f 77/185/2 78/186/2 79/187/2 80/188/2
f 78/131/3 77/169/3 75/170/3 74/12/3
f 76/171/4 80/172/4 79/34/4 73/16/4
f 79/189/5 78/190/5 74/191/5 73/192/5
f 75/193/6 77/194/6 80/195/6 76/196/6
f 81/197/1 82/198/1 83/199/1 84/200/1
f 85/201/2 86/202/2 87/203/2 88/204/2
f 86/95/3 85/96/3 83/97/3 82/98/3
f 84/75/4 88/76/4 87/77/4 81/78/4
f 87/205/5 86/206/5 82/207/5 81/208/5
f 83/209/6 85/210/6 88/211/6 84/212/6
f 89/213/1 90/214/1 91/215/1 92/216/1
f 93/217/2 94/218/2 95/219/2 96/220/2
f 94/95/3 93/96/3 91/97/3 90/98/3
f 92/75/4 96/76/4 95/77/4 89/78/4
f 95/221/5 94/222/5 90/223/5 89/224/5
f 91/225/6 93/226/6 96/227/6 92/228/6
f 97/229/1 98/230/1 99/231/1 100/232/1
f 101/233/2 102/234/2 103/235/2 104/236/2
f 102/131/3 101/237/3 99/238/3 98/12/3
f 100/239/4 104/240/4 103/34/4 97/16/4
f 103/241/5 102/242/5 98/243/5 97/244/5
f 99/245/6 101/246/6 104/247/6 100/248/6
f 105/249/1 106/250/1 107/251/1 108/252/1
f 109/253/2 110/254/2 111/255/2 112/256/2
f 110/131/3 109/237/3 107/238/3 106/12/3
f 108/239/4 112/240/4 111/34/4 105/16/4
f 111/257/5 110/258/5 106/259/5 105/260/5
f 107/261/6 109/262/6 112/263/6 108/264/6
f 113/265/1 114/266/1 115/267/1 116/268/1
f 117/269/2 118/270/2 119/271/2 120/272/2
f 118/95/3 117/96/3 115/97/3 114/98/3
f 116/75/4 120/76/4 119/77/4 113/78/4
f 119/273/5 118/274/5 114/275/5 113/276/5
f 115/277/6 117/278/6 120/279/6 116/280/6
f 121/281/1 122/282/1 123/283/1 124/284/1
f 125/285/2 126/286/2 127/287/2 128/288/2
f 126/95/3 125/96/3 123/97/3 122/98/3
f 124/75/4 128/76/4 127/77/4 121/78/4
f 127/289/5 126/290/5 122/291/5 121/292/5
f 123/293/6 125/294/6 128/295/6 124/296/6
f 129/297/1 130/298/1 131/299/1 132/300/1
f 133/301/2 134/302/2 135/303/2 136/304/2
f 134/131/3 133/169/3 131/170/3 130/12/3
f 132/171/4 136/172/4 135/34/4 129/16/4
f 135/305/5 134/306/5 130/307/5 129/308/5
f 131/309/6 133/310/6 136/311/6 132/312/6
f 137/313/1 138/314/1 139/315/1 140/316/1
f 141/317/2 142/318/2 143/319/2 144/320/2
f 142/131/3 141/169/3 139/170/3 138/12/3
f 140/171/4 144/172/4 143/34/4 137/16/4
f 143/321/5 142/322/5 138/323/5 137/324/5
f 139/325/6 141/326/6 144/327/6 140/328/6
f 145/329/1 146/330/1 147/331/1 148/332/1
f 149/333/2 150/334/2 151/335/2 152/336/2
f 150/95/3 149/96/3 147/97/3 146/98/3
f 148/75/4 152/76/4 151/77/4 145/78/4
f 151/337/5 150/338/5 146/339/5 145/340/5
f 147/341/6 149/342/6 152/343/6 148/344/6
f 153/345/1 154/346/1 155/347/1 156/348/1
f 157/349/2 158/350/2 159/351/2 160/352/2
f 158/95/3 157/96/3 155/97/3 154/98/3
f 156/75/4 160/76/4 159/77/4 153/78/4
f 159/353/5 158/354/5 154/355/5 153/356/5
f 155/357/6 157/358/6 160/359/6 156/360/6
f 161/361/1 162/362/1 163/363/1 164/364/1
f 165/365/2 166/366/2 167/367/2 168/368/2
f 166/131/3 165/169/3 163/170/3 162/12/3
f 164/171/4 168/172/4 167/34/4 161/16/4
f 167/369/5 166/370/5 162/371/5 161/372/5
f 163/373/6 165/374/6 168/375/6 164/376/6
f 169/377/1 170/378/1 171/379/1 172/380/1
f 173/381/2 174/382/2 175/383/2 176/384/2
f 174/131/3 173/169/3 171/170/3 170/12/3
f 172/171/4 176/172/4 175/34/4 169/16/4
f 175/385/5 174/386/5 170/387/5 169/388/5
f 171/389/6 173/390/6 176/391/6 172/392/6
f 177/393/1 178/394/1 179/395/1 180/396/1
f 181/397/2 182/398/2 183/399/2 184/400/2
f 182/95/3 181/96/3 179/97/3 178/98/3
f 180/75/4 184/76/4 183/77/4 177/78/4
f 183/401/5 182/402/5 178/403/5 177/404/5
f 179/405/6 181/406/6 184/407/6 180/408/6
f 185/409/1 186/410/1 187/411/1 188/412/1
f 189/413/2 190/414/2 191/415/2 192/416/2
f 190/95/3 189/96/3 187/97/3 186/98/3
f 188/75/4 192/76/4 191/77/4 185/78/4
f 191/417/5 190/418/5 186/419/5 185/420/5
f 187/421/6 189/422/6 192/423/6 188/424/6
f 193/425/1 194/426/1 195/427/1 196/428/1
f 197/429/2 198/430/2 199/431/2 200/432/2
f 198/131/3 197/169/3 195/170/3 194/12/3
f 196/171/4 200/172/4 199/34/4 193/16/4
f 199/433/5 198/434/5 194/435/5 193/436/5
f 195/437/6 197/438/6 200/439/6 196/440/6
f 201/441/1 202/442/1 203/443/1 204/444/1
f 205/445/2 206/446/2 207/447/2 208/448/2
f 206/131/3 205/169/3 203/170/3 202/12/3
f 204/171/4 208/172/4 207/34/4 201/16/4
f 207/449/5 206/450/5 202/451/5 201/452/5
f 203/453/6 205/454/6 208/455/6 204/456/6
f 209/457/1 210/458/1 211/459/1 212/460/1
f 213/461/2 214/462/2 215/463/2 216/464/2
f 214/95/3 213/96/3 211/97/3 210/98/3
f 212/75/4 216/76/4 215/77/4 209/78/4
f 215/465/5 214/466/5 210/467/5 209/468/5
f 211/469/6 213/470/6 216/471/6 212/472/6
f 217/473/1 218/474/1 219/475/1 220/476/1
f 221/477/2 222/478/2 223/479/2 224/480/2
f 222/95/3 221/96/3 219/97/3 218/98/3
f 220/75/4 224/76/4 223/77/4 217/78/4
f 223/481/5 222/482/5 218/483/5 217/484/5
f 219/485/6 221/486/6 224/487/6 220/488/6
f 225/489/2 226/490/2 227/491/2 228/492/2
f 229/493/1 230/494/1 231/495/1 232/496/1
f 232/497/3 228/498/3 227/499/3 229/500/3
f 226/501/4 225/502/4 231/503/4 230/504/4
f 231/505/5 225/506/5 228/507/5 232/508/5
f 227/509/6 226/510/6 230/511/6 229/512/6
f 233/513/2 234/514/2 235/515/2 236/516/2
f 237/517/1 238/518/1 239/519/1 240/520/1
f 240/497/3 236/498/3 235/499/3 237/500/3
f 234/521/4 233/522/4 239/523/4 238/524/4
f 239/525/5 233/526/5 236/527/5 240/528/5
f 235/529/6 234/530/6 238/531/6 237/532/6
f 241/533/2 242/534/2 243/535/2 244/536/2
f 245/537/1 246/538/1 247/539/1 248/540/1
f 248/541/3 244/542/3 243/543/3 245/544/3
f 242/545/4 241/546/4 247/547/4 246/548/4
f 247/549/5 241/550/5 244/551/5 248/552/5
f 243/553/6 242/554/6 246/555/6 245/556/6
f 249/557/2 250/558/2 251/559/2 252/560/2
f 253/561/1 254/562/1 255/563/1 256/564/1
f 256/541/3 252/542/3 251/543/3 253/544/3
f 250/565/4 249/566/4 255/567/4 254/568/4
f 255/569/5 249/570/5 252/571/5 256/572/5
f 251/573/6 250/574/6 254/575/6 253/576/6
f 257/577/1 258/578/1 259/579/1 260/580/1
f 261/581/2 262/582/2 263/583/2 264/584/2
f 262/131/3 261/132/3 259/133/3 258/134/3
f 260/135/4 264/33/4 263/34/4 257/136/4
f 263/585/5 262/586/5 258/587/5 257/588/5
f 259/589/6 261/590/6 264/591/6 260/592/6
f 265/593/1 266/594/1 267/595/1 268/596/1
f 269/597/2 270/598/2 271/599/2 272/600/2
f 270/131/3 269/132/3 267/133/3 266/134/3
f 268/135/4 272/33/4 271/34/4 265/136/4
f 271/601/5 270/602/5 266/603/5 265/604/5
f 267/605/6 269/606/6 272/607/6 268/608/6
f 273/609/1 274/610/1 275/611/1 276/612/1
f 277/613/2 278/614/2 279/615/2 280/616/2
f 278/95/3 277/96/3 275/97/3 274/98/3
f 276/75/4 280/76/4 279/77/4 273/78/4
f 279/617/5 278/618/5 274/619/5 273/620/5
f 275/621/6 277/622/6 280/623/6 276/624/6
f 281/625/1 282/626/1 283/627/1 284/628/1
f 285/629/2 286/630/2 287/631/2 288/632/2
f 286/95/3 285/96/3 283/97/3 282/98/3
f 284/75/4 288/76/4 287/77/4 281/78/4
f 287/633/5 286/634/5 282/635/5 281/636/5
f 283/637/6 285/638/6 288/639/6 284/640/6
f 289/641/2 290/642/2 291/643/2 292/644/2
f 293/645/1 294/646/1 295/647/1 296/648/1
f 296/649/3 292/650/3 291/651/3 293/652/3
f 290/653/4 289/654/4 295/655/4 294/656/4
f 295/657/5 289/658/5 292/659/5 296/660/5
f 291/661/6 290/662/6 294/663/6 293/664/6
f 297/665/2 298/666/2 299/667/2 300/668/2
f 301/669/1 302/670/1 303/671/1 304/672/1
f 304/649/3 300/650/3 299/651/3 301/652/3
f 298/653/4 297/654/4 303/655/4 302/656/4
f 303/673/5 297/674/5 300/675/5 304/676/5
f 299/677/6 298/678/6 302/679/6 301/680/6
f 305/681/2 306/682/2 307/683/2 308/684/2
f 309/685/1 310/686/1 311/687/1 312/688/1
f 312/689/3 308/690/3 307/691/3 309/692/3
f 306/693/4 305/694/4 311/695/4 310/696/4
f 311/697/5 305/698/5 308/699/5 312/700/5
f 307/701/6 306/702/6 310/703/6 309/704/6
f 313/705/2 314/706/2 315/707/2 316/708/2
f 317/709/1 318/710/1 319/711/1 320/712/1
f 320/689/3 316/690/3 315/691/3 317/692/3
f 314/693/4 313/694/4 319/695/4 318/696/4
f 319/713/5 313/714/5 316/715/5 320/716/5
f 315/717/6 314/718/6 318/719/6 317/720/6
f 321/721/2 322/722/2 323/723/2 324/724/2
f 325/725/1 326/726/1 327/727/1 328/728/1
f 328/729/3 324/730/3 323/731/3 325/732/3
f 322/733/4 321/734/4 327/735/4 326/736/4
f 327/737/5 321/738/5 324/739/5 328/740/5
f 323/741/6 322/742/6 326/743/6 325/744/6
f 329/745/2 330/746/2 331/747/2 332/748/2
f 333/749/1 334/750/1 335/751/1 336/752/1
f 336/729/3 332/730/3 331/731/3 333/732/3
f 330/733/4 329/734/4 335/735/4 334/736/4
f 335/753/5 329/754/5 332/755/5 336/756/5
f 331/757/6 330/758/6 334/759/6 333/760/6
f 337/761/2 338/762/2 339/763/2 340/764/2
f 341/765/1 342/766/1 343/767/1 344/768/1
f 344/769/3 340/770/3 339/771/3 341/772/3
f 338/773/4 337/774/4 343/775/4 342/776/4
f 343/777/5 337/778/5 340/779/5 344/780/5
f 339/781/6 338/782/6 342/783/6 341/784/6
f 345/785/2 346/786/2 347/787/2 348/788/2
f 349/789/1 350/790/1 351/791/1 352/792/1
f 352/793/3 348/794/3 347/771/3 349/772/3
f 346/773/4 345/774/4 351/775/4 350/776/4
f 351/795/5 345/796/5 348/797/5 352/798/5
f 347/799/6 346/800/6 350/801/6 349/802/6
f 353/803/2 354/804/2 355/805/2 356/806/2
f 357/807/1 358/808/1 359/809/1 360/810/1
f 360/649/3 356/650/3 355/811/3 357/812/3
f 354/813/4 353/654/4 359/655/4 358/814/4
f 359/815/5 353/816/5 356/817/5 360/818/5
f 355/819/6 354/820/6 358/821/6 357/822/6
f 361/823/2 362/824/2 363/825/2 364/826/2
f 365/827/1 366/828/1 367/829/1 368/830/1
f 368/649/3 364/650/3 363/811/3 365/812/3
f 362/813/4 361/654/4 367/655/4 366/814/4
f 367/831/5 361/832/5 364/833/5 368/834/5
f 363/835/6 362/836/6 366/837/6 365/838/6
f 369/839/2 370/840/2 371/841/2 372/842/2
f 373/843/1 374/844/1 375/845/1 376/846/1
f 376/689/3 372/690/3 371/691/3 373/692/3
f 370/693/4 369/694/4 375/695/4 374/696/4
f 375/847/5 369/848/5 372/849/5 376/850/5
f 371/851/6 370/852/6 374/853/6 373/854/6
f 377/855/2 378/856/2 379/857/2 380/858/2
f 381/859/1 382/860/1 383/861/1 384/862/1
f 384/689/3 380/690/3 379/691/3 381/692/3
f 378/693/4 377/694/4 383/695/4 382/696/4
f 383/863/5 377/864/5 380/865/5 384/866/5
f 379/867/6 378/868/6 382/869/6 381/870/6
f 385/871/2 386/872/2 387/873/2 388/874/2
f 389/875/1 390/876/1 391/877/1 392/878/1
f 392/649/3 388/650/3 387/879/3 389/880/3
f 386/881/4 385/882/4 391/883/4 390/884/4
f 391/885/5 385/886/5 388/887/5 392/888/5
f 387/889/6 386/890/6 390/891/6 389/892/6
f 393/893/2 394/894/2 395/895/2 396/896/2
f 397/897/1 398/898/1 399/899/1 400/900/1
f 400/901/3 396/902/3 395/903/3 397/904/3
f 394/881/4 393/882/4 399/883/4 398/884/4
f 399/905/5 393/906/5 396/907/5 400/908/5
f 395/909/6 394/910/6 398/911/6 397/912/6
f 401/913/2 402/914/2 403/915/2 404/916/2
f 405/917/1 406/918/1 407/919/1 408/920/1
f 408/689/3 404/690/3 403/691/3 405/692/3
f 402/921/4 401/922/4 407/923/4 406/924/4
f 407/925/5 401/926/5 404/927/5 408/928/5
f 403/929/6 402/930/6 406/931/6 405/932/6
f 409/933/2 410/934/2 411/935/2 412/936/2
f 413/937/1 414/938/1 415/939/1 416/940/1
f 416/941/3 412/942/3 411/943/3 413/944/3
f 410/921/4 409/922/4 415/923/4 414/924/4
f 415/945/5 409/946/5 412/947/5 416/948/5
f 411/949/6 410/950/6 414/951/6 413/952/6
f 417/953/2 418/954/2 419/955/2 420/956/2
f 421/957/1 422/958/1 423/959/1 424/960/1
f 424/901/3 420/902/3 419/961/3 421/962/3
f 418/963/4 417/882/4 423/883/4 422/964/4
f 423/965/5 417/966/5 420/967/5 424/968/5
f 419/969/6 418/970/6 422/971/6 421/972/6
f 425/973/2 426/974/2 427/975/2 428/976/2
f 429/977/1 430/978/1 431/979/1 432/980/1
f 432/901/3 428/902/3 427/961/3 429/962/3
f 426/963/4 425/882/4 431/883/4 430/964/4
f 431/981/5 425/982/5 428/983/5 432/984/5
f 427/985/6 426/986/6 430/987/6 429/988/6
f 433/989/2 434/990/2 435/991/2 436/992/2
f 437/993/1 438/994/1 439/995/1 440/996/1
f 440/997/3 436/998/3 435/943/3 437/944/3
f 434/921/4 433/999/4 439/1000/4 438/924/4
f 439/1001/5 433/1002/5 436/1003/5 440/1004/5
f 435/1005/6 434/1006/6 438/1007/6 437/1008/6
f 441/1009/2 442/1010/2 443/1011/2 444/1012/2
f 445/1013/1 446/1014/1 447/1015/1 448/1016/1
f 448/997/3 444/998/3 443/943/3 445/944/3
f 442/921/4 441/999/4 447/1000/4 446/924/4
f 447/1017/5 441/1018/5 444/1019/5 448/1020/5
f 443/1021/6 442/1022/6 446/1023/6 445/1024/6
f 449/1025/2 450/1026/2 451/1027/2 452/1028/2
f 453/1029/1 454/1030/1 455/1031/1 456/1032/1
f 456/901/3 452/902/3 451/1033/3 453/1034/3
f 450/1035/4 449/882/4 455/883/4 454/1036/4
f 455/1037/5 449/1038/5 452/1039/5 456/1040/5
f 451/1041/6 450/1042/6 454/1043/6 453/1044/6
f 457/1045/2 458/1046/2 459/1047/2 460/1048/2
f 461/1049/1 462/1050/1 463/1051/1 464/1052/1
f 464/901/3 460/902/3 459/1033/3 461/1034/3
f 458/1035/4 457/882/4 463/883/4 462/1036/4
f 463/1053/5 457/1054/5 460/1055/5 464/1056/5
f 459/1057/6 458/1058/6 462/1059/6 461/1060/6
f 465/1061/2 466/1062/2 467/1063/2 468/1064/2
f 469/1065/1 470/1066/1 471/1067/1 472/1068/1
f 472/941/3 468/942/3 467/943/3 469/944/3
f 466/921/4 465/922/4 471/923/4 470/924/4
f 471/1069/5 465/1070/5 468/1071/5 472/1072/5
f 467/1073/6 466/1074/6 470/1075/6 469/1076/6
f 473/1077/2 474/1078/2 475/1079/2 476/1080/2
f 477/1081/1 478/1082/1 479/1083/1 480/1084/1
f 480/941/3 476/942/3 475/943/3 477/944/3
f 474/921/4 473/922/4 479/923/4 478/924/4
f 479/1085/5 473/1086/5 476/1087/5 480/1088/5
f 475/1089/6 474/1090/6 478/1091/6 477/1092/6
f 481/1093/2 482/1094/2 483/1095/2 484/1096/2
f 485/1097/1 486/1098/1 487/1099/1 488/1100/1
f 488/1101/3 484/1102/3 483/1103/3 485/1104/3
f 482/1105/4 481/1106/4 487/1107/4 486/1108/4
f 487/1109/5 481/1110/5 484/1111/5 488/1112/5
f 483/1113/6 482/1114/6 486/1115/6 485/1116/6
f 489/1117/2 490/1118/2 491/1119/2 492/1120/2
f 493/1121/1 494/1122/1 495/1123/1 496/1124/1
f 496/1101/3 492/1102/3 491/1103/3 493/1104/3
f 490/1105/4 489/1106/4 495/1107/4 494/1108/4
f 495/1125/5 489/1126/5 492/1127/5 496/1128/5
f 491/1129/6 490/1130/6 494/1131/6 493/1132/6
f 497/1133/2 498/1134/2 499/1135/2 500/1136/2
f 501/1137/1 502/1138/1 503/1139/1 504/1140/1
f 504/1141/3 500/1142/3 499/1143/3 501/1144/3
f 498/1145/4 497/1146/4 503/1147/4 502/1148/4
f 503/1149/5 497/1150/5 500/1151/5 504/1152/5
f 499/1153/6 498/1154/6 502/1155/6 501/1156/6
f 505/1157/2 506/1158/2 507/1159/2 508/1160/2
f 509/1161/1 510/1162/1 511/1163/1 512/1164/1
f 512/1141/3 508/1142/3 507/1143/3 509/1144/3
f 506/1145/4 505/1146/4 511/1147/4 510/1148/4
f 511/1165/5 505/1166/5 508/1167/5 512/1168/5
f 507/1169/6 506/1170/6 510/1171/6 509/1172/6
o Office_Building.006
v 0.229151 -3.332026 1.973241
v 0.229151 -3.332026 0.018591
v 0.213185 -3.332026 1.973241
v 0.213185 -3.332026 0.018591
v 0.229145 -4.305826 0.018592
v 0.213179 -4.305826 0.018592
v 0.229151 -4.399608 1.973210
v 0.229151 -4.399608 0.018591
v 0.229145 -4.305826 1.973210
v 0.213179 -4.305826 1.973210
v 0.213185 -4.399608 0.018591
v 0.213185 -4.399608 1.973210
v 0.229152 -14.080049 1.973241
v 0.229152 -14.080049 0.018591
v 0.213186 -14.080049 0.018591
v 0.213186 -14.080049 1.973241
v 0.229146 -13.106247 0.018592
v 0.213180 -13.106247 0.018592
v 0.229152 -13.012465 1.973210
v 0.229146 -13.106247 1.973210
v 0.229152 -13.012465 0.018591
v 0.213180 -13.106247 1.973210
v 0.213186 -13.012465 1.973210
v 0.213186 -13.012465 0.018591
v 0.229151 -1.257645 1.973241
v 0.229151 -1.257645 0.018591
v 0.213185 -1.257645 1.973241
v 0.213185 -1.257645 0.018591
v 0.229145 -2.231446 0.018592
v 0.213179 -2.231446 0.018592
v 0.229151 -2.325228 1.973210
v 0.229151 -2.325228 0.018591
v 0.229145 -2.231446 1.973210
v 0.213179 -2.231446 1.973210
v 0.213185 -2.325228 0.018591
v 0.213185 -2.325228 1.973210
v 0.229152 -16.154428 1.973241
v 0.229152 -16.154428 0.018591
v 0.213186 -16.154428 0.018591
v 0.213186 -16.154428 1.973241
v 0.229146 -15.180628 0.018592
v 0.213180 -15.180628 0.018592
v 0.229152 -15.086846 1.973210
v 0.229146 -15.180628 1.973210
v 0.229152 -15.086846 0.018591
v 0.213180 -15.180628 1.973210
v 0.213186 -15.086846 1.973210
v 0.213186 -15.086846 0.018591
v 0.229151 -3.332026 4.613392
v 0.229151 -3.332026 2.407271
v 0.213185 -3.332026 4.613392
v 0.213185 -3.332026 2.407271
v 0.229145 -4.305826 2.407272
v 0.213179 -4.305826 2.407272
v 0.229151 -4.399608 4.613361
v 0.229151 -4.399608 2.407271
v 0.229145 -4.305826 4.613361
v 0.213179 -4.305826 4.613361
v 0.213185 -4.399608 2.407271
v 0.213185 -4.399608 4.613361
v 0.229152 -14.080049 4.613392
v 0.229152 -14.080049 2.407271
v 0.213186 -14.080049 2.407271
v 0.213186 -14.080049 4.613392
v 0.229146 -13.106247 2.407272
v 0.213180 -13.106247 2.407272
v 0.229152 -13.012465 4.613361
v 0.229146 -13.106247 4.613361
v 0.229152 -13.012465 2.407271
v 0.213180 -13.106247 4.613361
v 0.213186 -13.012465 4.613361
v 0.213186 -13.012465 2.407271
v 0.229151 -1.257645 4.613392
v 0.229151 -1.257645 2.407271
v 0.213185 -1.257645 4.613392
v 0.213185 -1.257645 2.407271
v 0.229145 -2.231446 2.407272
v 0.213179 -2.231446 2.407272
v 0.229151 -2.325228 4.613361
v 0.229151 -2.325228 2.407271
v 0.229145 -2.231446 4.613361
v 0.213179 -2.231446 4.613361
v 0.213185 -2.325228 2.407271
v 0.213185 -2.325228 4.613361
v 0.229152 -16.154428 4.613392
v 0.229152 -16.154428 2.407271
v 0.213186 -16.154428 2.407271
v 0.213186 -16.154428 4.613392
v 0.229146 -15.180628 2.407272
v 0.213180 -15.180628 2.407272
v 0.229152 -15.086846 4.613361
v 0.229146 -15.180628 4.613361
v 0.229152 -15.086846 2.407271
v 0.213180 -15.180628 4.613361
v 0.213186 -15.086846 4.613361
v 0.213186 -15.086846 2.407271
v 0.229152 -6.443595 4.613392
v 0.229152 -6.443595 2.407271
v 0.213185 -6.443595 4.613392
v 0.213185 -6.443595 2.407271
v 0.229146 -7.417396 2.407272
v 0.213180 -7.417396 2.407272
v 0.229152 -7.511178 4.613361
v 0.229152 -7.511178 2.407271
v 0.229146 -7.417396 4.613361
v 0.213180 -7.417396 4.613361
v 0.213185 -7.511178 2.407271
v 0.213185 -7.511178 4.613361
v 0.229152 -10.968478 4.613392
v 0.229152 -10.968478 2.407271
v 0.213185 -10.968478 2.407271
v 0.213185 -10.968478 4.613392
v 0.229146 -9.994678 2.407272
v 0.213180 -9.994678 2.407272
v 0.229152 -9.900895 4.613361
v 0.229146 -9.994678 4.613361
v 0.229152 -9.900895 2.407271
v 0.213180 -9.994678 4.613361
v 0.213185 -9.900895 4.613361
v 0.213185 -9.900895 2.407271
v 0.229152 -8.046500 4.613392
v 0.229152 -8.046500 2.407271
v 0.213185 -8.046500 4.613392
v 0.213185 -8.046500 2.407271
v 0.229152 -9.365573 4.613392
v 0.229152 -9.365573 2.407271
v 0.213185 -9.365573 2.407271
v 0.213185 -9.365573 4.613392
v 0.229152 -6.443595 1.973241
v 0.229152 -6.443595 0.018591
v 0.213185 -6.443595 1.973241
v 0.213185 -6.443595 0.018591
v 0.229146 -7.417396 0.018592
v 0.213180 -7.417396 0.018592
v 0.229152 -7.511178 1.973210
v 0.229152 -7.511178 0.018591
v 0.229146 -7.417396 1.973210
v 0.213180 -7.417396 1.973210
v 0.213185 -7.511178 0.018591
v 0.213185 -7.511178 1.973210
v 0.229152 -10.968478 1.973241
v 0.229152 -10.968478 0.018591
v 0.213185 -10.968478 0.018591
v 0.213185 -10.968478 1.973241
v 0.229146 -9.994678 0.018592
v 0.213180 -9.994678 1.973229
v 0.213180 -9.994678 0.018592
v 0.229152 -9.900895 1.973210
v 0.229146 -9.994678 1.973210
v 0.229152 -9.900895 0.018591
v 0.213185 -9.900895 1.973210
v 0.213185 -9.900895 0.018591
vn 1.0000 -0.0000 -0.0000
vn -1.0000 -0.0000 -0.0000
vn 1.0000 0.0001 -0.0000
vn -1.0000 -0.0001 -0.0000
vn 1.0000 -0.0001 -0.0000
vn -1.0000 0.0001 -0.0000
vt -2.000709 4.639105
vt -3.549866 4.639085
vt -3.549866 1.529577
vt -2.000709 1.529576
vt 5.300709 1.529576
vt 6.849866 1.529577
vt 6.849866 4.639085
vt 5.300709 4.639105
vt -6.999058 4.639055
vt -6.999058 1.529576
vt -6.849866 1.529577
vt -6.849866 4.639055
vt 6.849866 4.639055
vt 6.999058 1.529576
vt 6.999058 4.639055
vt 20.849899 1.529577
vt 22.399059 1.529576
vt 22.399059 4.639105
vt 20.849899 4.639085
vt 6.849866 8.839134
vt 5.300709 8.839154
vt 5.300709 5.329576
vt 6.849866 5.329577
vt -20.700708 4.639055
vt -20.849899 4.639055
vt -20.849899 1.529577
vt -20.700708 1.529576
vt 20.849899 4.639055
vt 20.700708 4.639055
vt 20.700708 1.529576
vt 3.549866 8.839134
vt 2.000709 8.839154
vt 2.000709 5.329576
vt 3.549866 5.329577
vt -3.699059 4.639055
vt -3.699059 1.529576
vt -3.549866 4.639055
vt 3.549866 4.639055
vt 3.549866 1.529577
vt 3.699059 1.529576
vt 3.699059 4.639055
vt 24.149900 1.529577
vt 25.699059 1.529576
vt 25.699059 4.639105
vt 24.149900 4.639085
vt -24.149900 1.529577
vt -24.149900 4.639085
vt -25.699059 4.639105
vt -25.699059 1.529576
vt -24.000710 4.639055
vt -24.149900 4.639055
vt -24.000710 1.529576
vt 24.149900 4.639055
vt 24.000710 4.639055
vt 24.000710 1.529576
vt -6.999058 8.839105
vt -6.999058 5.329576
vt -6.849866 5.329577
vt -6.849866 8.839105
vt 6.849866 8.839105
vt 6.999058 5.329576
vt 6.999058 8.839105
vt 14.899097 5.329576
vt 14.899097 8.839154
vt 12.800669 8.839154
vt 12.800669 5.329576
vt -20.700708 8.839105
vt -20.849899 8.839105
vt -20.849899 5.329577
vt -20.700708 5.329576
vt 20.849899 8.839105
vt 20.700708 8.839105
vt 20.700708 5.329576
vt 20.849899 5.329577
vt -2.000709 8.839154
vt -3.549866 8.839134
vt -3.549866 5.329577
vt -2.000709 5.329576
vt -17.449059 5.329576
vt -15.899900 5.329577
vt -15.899900 8.839134
vt -17.449059 8.839154
vt -3.699059 8.839105
vt -3.699059 5.329576
vt -3.549866 8.839105
vt 3.549866 8.839105
vt 3.699059 5.329576
vt 3.699059 8.839105
vt -5.300709 8.839154
vt -6.849866 8.839134
vt -5.300709 5.329576
vt -11.799866 4.639085
vt -11.799866 1.529577
vt -10.250709 1.529576
vt -10.250709 4.639105
vt -24.000710 8.839105
vt -24.149900 8.839105
vt -24.149900 5.329577
vt -24.000710 5.329576
vt 24.149900 8.839105
vt 24.000710 8.839105
vt 24.000710 5.329576
vt 24.149900 5.329577
vt -24.149900 8.839134
vt -25.699059 8.839154
vt -25.699059 5.329576
vt -11.949058 8.839105
vt -11.949058 5.329576
vt -11.799866 5.329577
vt -11.799866 8.839105
vt 11.799866 8.839105
vt 11.799866 5.329577
vt 11.949058 5.329576
vt 11.949058 8.839105
vt -20.849899 4.639085
vt -22.399059 4.639105
vt -22.399059 1.529576
vt -15.750709 8.839105
vt -15.899900 8.839105
vt -15.750709 5.329576
vt 15.899900 8.839105
vt 15.750709 8.839105
vt 15.750709 5.329576
vt 15.899900 5.329577
vt -11.799866 8.839134
vt -10.250709 5.329576
vt -10.250709 8.839154
vt 17.449059 5.329576
vt 17.449059 8.839154
vt 15.899900 8.839134
vt 25.699059 5.329576
vt 25.699059 8.839154
vt 24.149900 8.839134
vt -5.300709 4.639105
vt -6.849866 4.639085
vt -5.300709 1.529576
vt 11.799866 4.639085
vt 10.250709 4.639105
vt 10.250708 1.529576
vt 11.799866 1.529577
vt -11.949058 4.639055
vt -11.949058 1.529576
vt -11.799866 4.639055
vt 11.799866 4.639055
vt 11.949058 1.529576
vt 11.949058 4.639055
vt -15.899900 1.529577
vt -15.899900 4.639085
vt -17.449059 4.639105
vt -17.449059 1.529576
vt -22.399059 5.329576
vt -20.849899 8.839134
vt -22.399059 8.839154
vt 15.899900 4.639085
vt 15.899900 1.529577
vt 17.449059 1.529576
vt 17.449059 4.639105
vt -15.750709 4.639055
vt -15.899900 4.639055
vt -15.750709 1.529576
vt 15.899900 4.639055
vt 15.750709 4.639055
vt 15.750709 1.529576
vt 11.799866 8.839134
vt 10.250709 8.839154
vt 10.250708 5.329576
vt 22.399059 5.329576
vt 22.399059 8.839154
vt 20.849899 8.839134
vt 3.549866 4.639085
vt 2.000709 4.639105
vt 2.000709 1.529576
vt -14.899097 5.329576
vt -12.800669 5.329576
vt -12.800669 8.839154
vt -14.899097 8.839154
s 0
f 537/1173/7 545/1174/7 541/1175/7 538/1176/7
f 516/1177/8 518/1178/8 522/1179/8 515/1180/8
f 519/1181/9 520/1182/9 517/1183/9 521/1184/9
f 522/1185/10 518/1178/10 523/1186/10 524/1187/10
f 530/1188/8 527/1189/8 528/1190/8 534/1191/8
f 570/1192/8 563/1193/8 564/1194/8 566/1195/8
f 531/1196/11 532/1197/11 529/1198/11 533/1199/11
f 534/1200/12 535/1201/12 536/1202/12 530/1188/12
f 594/1203/8 587/1204/8 588/1205/8 590/1206/8
f 543/1207/9 544/1208/9 541/1175/9 545/1209/9
f 546/1210/10 542/1211/10 547/1212/10 548/1213/10
f 554/1214/8 551/1215/8 552/1216/8 558/1217/8
f 553/1218/7 556/1219/7 549/1220/7 550/1221/7
f 555/1222/11 556/1223/11 553/1218/11 557/1224/11
f 558/1225/12 559/1226/12 560/1227/12 554/1214/12
f 567/1228/9 568/1229/9 565/1230/9 569/1231/9
f 570/1232/10 566/1195/10 571/1233/10 572/1234/10
f 639/1235/8 640/1236/8 635/1237/8 636/1238/8
f 579/1239/11 580/1240/11 577/1241/11 581/1242/11
f 582/1243/12 583/1244/12 584/1245/12 578/1246/12
f 585/1247/7 593/1248/7 589/1249/7 586/1250/7
f 622/1251/7 625/1252/7 628/1253/7 621/1254/7
f 591/1255/9 592/1256/9 589/1249/9 593/1257/9
f 594/1258/10 590/1206/10 595/1259/10 596/1260/10
f 561/1261/7 569/1262/7 565/1230/7 562/1263/7
f 649/1264/7 645/1265/7 642/1266/7 641/1267/7
f 603/1268/11 604/1269/11 601/1270/11 605/1271/11
f 606/1272/12 607/1273/12 608/1274/12 602/1275/12
f 601/1270/7 604/1276/7 597/1277/7 598/1278/7
f 615/1279/9 616/1280/9 613/1281/9 617/1282/9
f 618/1283/10 614/1284/10 619/1285/10 620/1286/10
f 529/1198/7 532/1287/7 525/1288/7 526/1289/7
f 627/1290/11 628/1291/11 625/1252/11 629/1292/11
f 630/1293/12 631/1294/12 632/1295/12 626/1296/12
f 617/1297/7 613/1281/7 610/1298/7 609/1299/7
f 626/1296/8 623/1300/8 624/1301/8 630/1302/8
f 599/1303/8 600/1304/8 606/1305/8 602/1275/8
f 513/1306/7 521/1307/7 517/1183/7 514/1308/7
f 650/1309/8 643/1310/8 644/1311/8 646/1312/8
f 647/1313/9 648/1314/9 645/1265/9 649/1315/9
f 650/1316/10 646/1312/10 651/1317/10 652/1318/10
f 657/1319/7 661/1320/7 653/1321/7 654/1322/7
f 574/1323/7 577/1241/7 580/1324/7 573/1325/7
f 658/1326/8 659/1327/8 655/1328/8 656/1329/8
f 660/1330/11 661/1331/11 657/1319/11 662/1332/11
f 658/1333/12 663/1334/12 664/1335/12 659/1327/12
f 618/1336/8 611/1337/8 612/1338/8 614/1284/8
f 578/1246/8 575/1339/8 576/1340/8 582/1341/8
f 546/1342/8 539/1343/8 540/1344/8 542/1211/8
f 638/1345/7 634/1346/7 633/1347/7 637/1348/7
